<mxfile host="drawio-plugin" modified="2023-11-06T21:20:00.783Z" agent="5.0 (Windows NT 6.2; Win64; x64) AppleWebKit/537.36 (KHTML, like Gecko) Chrome/104.0.5112.102 Safari/537.36" etag="NCWlat4USJHwGzTh6W4a" version="20.5.3" type="embed"><diagram name="1 oldal" id="PECIXuEUNroKyanK3r6n"><mxGraphModel dx="1560" dy="1393" grid="1" gridSize="10" guides="1" tooltips="1" connect="1" arrows="1" fold="1" page="0" pageScale="1" pageWidth="827" pageHeight="1169" math="0" shadow="0"><root><mxCell id="0"/><mxCell id="1" parent="0"/><mxCell id="BNboJuSO8pRcp-xk_Tbs-8" value="Node container" style="swimlane;whiteSpace=wrap;html=1;" parent="1" vertex="1"><mxGeometry x="130" y="550" width="390" height="370" as="geometry"/></mxCell><mxCell id="BNboJuSO8pRcp-xk_Tbs-6" value="Pod Container" style="swimlane;whiteSpace=wrap;html=1;" parent="BNboJuSO8pRcp-xk_Tbs-8" vertex="1"><mxGeometry x="210" y="80" width="175" height="220" as="geometry"/></mxCell><mxCell id="BNboJuSO8pRcp-xk_Tbs-26" value="Docker&amp;nbsp;Container" style="swimlane;whiteSpace=wrap;html=1;" parent="BNboJuSO8pRcp-xk_Tbs-6" vertex="1"><mxGeometry x="15" y="37.5" width="135" height="165" as="geometry"/></mxCell><mxCell id="BNboJuSO8pRcp-xk_Tbs-9" value="GG Poller" style="rounded=0;whiteSpace=wrap;html=1;" parent="BNboJuSO8pRcp-xk_Tbs-26" vertex="1"><mxGeometry x="10" y="57.5" width="120" height="60" as="geometry"/></mxCell><mxCell id="7" value="Pod Container" style="swimlane;whiteSpace=wrap;html=1;" vertex="1" parent="BNboJuSO8pRcp-xk_Tbs-8"><mxGeometry x="10" y="80" width="175" height="220" as="geometry"/></mxCell><mxCell id="5" value="Docker&amp;nbsp;Container" style="swimlane;whiteSpace=wrap;html=1;" vertex="1" parent="7"><mxGeometry x="20" y="32.5" width="135" height="165" as="geometry"/></mxCell><mxCell id="BNboJuSO8pRcp-xk_Tbs-7" value="GG Loader" style="rounded=0;whiteSpace=wrap;html=1;" parent="5" vertex="1"><mxGeometry x="7.5" y="60" width="120" height="60" as="geometry"/></mxCell><mxCell id="BNboJuSO8pRcp-xk_Tbs-18" value="Node container" style="swimlane;whiteSpace=wrap;html=1;" parent="1" vertex="1"><mxGeometry x="1010" y="130" width="390" height="370" as="geometry"/></mxCell><mxCell id="BNboJuSO8pRcp-xk_Tbs-28" value="Pod Container" style="swimlane;whiteSpace=wrap;html=1;startSize=30;" parent="BNboJuSO8pRcp-xk_Tbs-18" vertex="1"><mxGeometry x="37.5" y="60" width="315" height="280" as="geometry"/></mxCell><mxCell id="BNboJuSO8pRcp-xk_Tbs-19" value="Docker Container" style="swimlane;whiteSpace=wrap;html=1;" parent="BNboJuSO8pRcp-xk_Tbs-28" vertex="1"><mxGeometry x="55" y="80" width="225" height="162.5" as="geometry"/></mxCell><mxCell id="BNboJuSO8pRcp-xk_Tbs-20" value="GG Spark Master" style="rounded=0;whiteSpace=wrap;html=1;" parent="BNboJuSO8pRcp-xk_Tbs-19" vertex="1"><mxGeometry x="42.5" y="72.5" width="120" height="60" as="geometry"/></mxCell><mxCell id="BNboJuSO8pRcp-xk_Tbs-22" value="Node container" style="swimlane;whiteSpace=wrap;html=1;" parent="1" vertex="1"><mxGeometry x="90" y="120" width="210" height="400" as="geometry"/></mxCell><mxCell id="BNboJuSO8pRcp-xk_Tbs-29" value="Pod Container" style="swimlane;whiteSpace=wrap;html=1;" parent="BNboJuSO8pRcp-xk_Tbs-22" vertex="1"><mxGeometry x="10" y="55" width="185" height="310" as="geometry"/></mxCell><mxCell id="BNboJuSO8pRcp-xk_Tbs-23" value="Docker Container" style="swimlane;whiteSpace=wrap;html=1;" parent="BNboJuSO8pRcp-xk_Tbs-29" vertex="1"><mxGeometry x="15" y="45" width="152.5" height="220" as="geometry"/></mxCell><mxCell id="BNboJuSO8pRcp-xk_Tbs-24" value="Spark Worker" style="rounded=0;whiteSpace=wrap;html=1;" parent="BNboJuSO8pRcp-xk_Tbs-23" vertex="1"><mxGeometry x="22.5" y="80" width="120" height="60" as="geometry"/></mxCell><mxCell id="2" style="edgeStyle=orthogonalEdgeStyle;rounded=0;orthogonalLoop=1;jettySize=auto;html=1;exitX=0.5;exitY=1;exitDx=0;exitDy=0;" edge="1" parent="1" source="3" target="BNboJuSO8pRcp-xk_Tbs-18"><mxGeometry relative="1" as="geometry"><mxPoint x="1410" y="140" as="targetPoint"/></mxGeometry></mxCell><mxCell id="3" value="Amazon&lt;br&gt;S3" style="shape=datastore;whiteSpace=wrap;html=1;" vertex="1" parent="1"><mxGeometry x="1380" y="-40" width="60" height="60" as="geometry"/></mxCell><mxCell id="4" value="geocaching_s3_bucket&lt;br&gt;(application jar storage)" style="text;html=1;align=center;verticalAlign=middle;resizable=0;points=[];autosize=1;strokeColor=none;fillColor=none;" vertex="1" parent="1"><mxGeometry x="1230" y="-40" width="150" height="40" as="geometry"/></mxCell><mxCell id="BNboJuSO8pRcp-xk_Tbs-14" value="Node container" style="swimlane;whiteSpace=wrap;html=1;" parent="1" vertex="1"><mxGeometry x="610" y="550" width="390" height="370" as="geometry"/></mxCell><mxCell id="BNboJuSO8pRcp-xk_Tbs-15" value="Pod Container" style="swimlane;whiteSpace=wrap;html=1;" parent="BNboJuSO8pRcp-xk_Tbs-14" vertex="1"><mxGeometry x="200" y="80" width="180" height="220" as="geometry"/></mxCell><mxCell id="MmoPp05Q2WJgFsnyLfHN-1" value="Docker&amp;nbsp;Container" style="swimlane;whiteSpace=wrap;html=1;" parent="BNboJuSO8pRcp-xk_Tbs-15" vertex="1"><mxGeometry x="20" y="40" width="140" height="170" as="geometry"/></mxCell><mxCell id="MmoPp05Q2WJgFsnyLfHN-3" value="GG UI" style="rounded=0;whiteSpace=wrap;html=1;" parent="MmoPp05Q2WJgFsnyLfHN-1" vertex="1"><mxGeometry x="10" y="70" width="120" height="60" as="geometry"/></mxCell><mxCell id="10" value="Pod Container" style="swimlane;whiteSpace=wrap;html=1;" vertex="1" parent="BNboJuSO8pRcp-xk_Tbs-14"><mxGeometry x="20" y="80" width="180" height="220" as="geometry"/></mxCell><mxCell id="BNboJuSO8pRcp-xk_Tbs-27" value="Docker&amp;nbsp;Container" style="swimlane;whiteSpace=wrap;html=1;startSize=23;" parent="10" vertex="1"><mxGeometry x="10" y="40" width="150" height="170" as="geometry"/></mxCell><mxCell id="BNboJuSO8pRcp-xk_Tbs-16" value="GG UI Cache" style="rounded=0;whiteSpace=wrap;html=1;" parent="BNboJuSO8pRcp-xk_Tbs-27" vertex="1"><mxGeometry x="10" y="70" width="140" height="60" as="geometry"/></mxCell><mxCell id="17" value="Node container" style="swimlane;whiteSpace=wrap;html=1;" vertex="1" parent="1"><mxGeometry x="320" y="120" width="210" height="400" as="geometry"/></mxCell><mxCell id="18" value="Pod Container" style="swimlane;whiteSpace=wrap;html=1;" vertex="1" parent="17"><mxGeometry x="10" y="55" width="185" height="310" as="geometry"/></mxCell><mxCell id="19" value="Docker Container" style="swimlane;whiteSpace=wrap;html=1;" vertex="1" parent="18"><mxGeometry x="15" y="45" width="152.5" height="220" as="geometry"/></mxCell><mxCell id="20" value="Spark Worker" style="rounded=0;whiteSpace=wrap;html=1;" vertex="1" parent="19"><mxGeometry x="22.5" y="80" width="120" height="60" as="geometry"/></mxCell><mxCell id="21" value="Node container" style="swimlane;whiteSpace=wrap;html=1;" vertex="1" parent="1"><mxGeometry x="540" y="120" width="210" height="400" as="geometry"/></mxCell><mxCell id="22" value="Pod Container" style="swimlane;whiteSpace=wrap;html=1;" vertex="1" parent="21"><mxGeometry x="10" y="55" width="185" height="310" as="geometry"/></mxCell><mxCell id="23" value="Docker Container" style="swimlane;whiteSpace=wrap;html=1;" vertex="1" parent="22"><mxGeometry x="15" y="45" width="152.5" height="220" as="geometry"/></mxCell><mxCell id="24" value="Spark Worker" style="rounded=0;whiteSpace=wrap;html=1;" vertex="1" parent="23"><mxGeometry x="22.5" y="80" width="120" height="60" as="geometry"/></mxCell><mxCell id="25" value="Node container" style="swimlane;whiteSpace=wrap;html=1;" vertex="1" parent="1"><mxGeometry x="770" y="120" width="210" height="400" as="geometry"/></mxCell><mxCell id="26" value="Pod Container" style="swimlane;whiteSpace=wrap;html=1;" vertex="1" parent="25"><mxGeometry x="10" y="55" width="185" height="310" as="geometry"/></mxCell><mxCell id="27" value="Docker Container" style="swimlane;whiteSpace=wrap;html=1;" vertex="1" parent="26"><mxGeometry x="15" y="45" width="152.5" height="220" as="geometry"/></mxCell><mxCell id="28" value="Spark Worker" style="rounded=0;whiteSpace=wrap;html=1;" vertex="1" parent="27"><mxGeometry x="22.5" y="80" width="120" height="60" as="geometry"/></mxCell><mxCell id="30" value="Amazon ECR" style="shape=datastore;whiteSpace=wrap;html=1;" vertex="1" parent="1"><mxGeometry x="220" y="-130" width="110" height="90" as="geometry"/></mxCell><mxCell id="31" value="container image repository&lt;br&gt;" style="text;html=1;align=center;verticalAlign=middle;resizable=0;points=[];autosize=1;strokeColor=none;fillColor=none;" vertex="1" parent="1"><mxGeometry x="330" y="-92" width="160" height="30" as="geometry"/></mxCell><mxCell id="32" value="Node container" style="swimlane;whiteSpace=wrap;html=1;" vertex="1" parent="1"><mxGeometry x="1060" y="550" width="210" height="370" as="geometry"/></mxCell><mxCell id="33" value="Pod Container" style="swimlane;whiteSpace=wrap;html=1;" vertex="1" parent="32"><mxGeometry x="17.5" y="90" width="175" height="220" as="geometry"/></mxCell><mxCell id="34" value="Docker&amp;nbsp;Container" style="swimlane;whiteSpace=wrap;html=1;" vertex="1" parent="33"><mxGeometry x="15" y="37.5" width="135" height="165" as="geometry"/></mxCell><mxCell id="35" value="IBM MQ" style="rounded=0;whiteSpace=wrap;html=1;" vertex="1" parent="34"><mxGeometry x="7.5" y="70" width="120" height="60" as="geometry"/></mxCell><mxCell id="40" style="edgeStyle=orthogonalEdgeStyle;rounded=0;orthogonalLoop=1;jettySize=auto;html=1;exitX=0.5;exitY=1;exitDx=0;exitDy=0;" edge="1" parent="1" source="39" target="BNboJuSO8pRcp-xk_Tbs-22"><mxGeometry relative="1" as="geometry"/></mxCell><mxCell id="41" style="edgeStyle=orthogonalEdgeStyle;rounded=0;orthogonalLoop=1;jettySize=auto;html=1;exitX=0.5;exitY=1;exitDx=0;exitDy=0;" edge="1" parent="1" source="39" target="17"><mxGeometry relative="1" as="geometry"/></mxCell><mxCell id="42" style="edgeStyle=orthogonalEdgeStyle;rounded=0;orthogonalLoop=1;jettySize=auto;html=1;exitX=0.5;exitY=1;exitDx=0;exitDy=0;" edge="1" parent="1" source="39" target="21"><mxGeometry relative="1" as="geometry"/></mxCell><mxCell id="43" style="edgeStyle=orthogonalEdgeStyle;rounded=0;orthogonalLoop=1;jettySize=auto;html=1;exitX=0.5;exitY=1;exitDx=0;exitDy=0;entryX=0.5;entryY=0;entryDx=0;entryDy=0;" edge="1" parent="1" source="39" target="25"><mxGeometry relative="1" as="geometry"/></mxCell><mxCell id="44" style="edgeStyle=orthogonalEdgeStyle;rounded=0;orthogonalLoop=1;jettySize=auto;html=1;exitX=0.5;exitY=1;exitDx=0;exitDy=0;entryX=0.25;entryY=0;entryDx=0;entryDy=0;" edge="1" parent="1" source="39" target="BNboJuSO8pRcp-xk_Tbs-18"><mxGeometry relative="1" as="geometry"><Array as="points"><mxPoint x="797" y="40"/><mxPoint x="1108" y="40"/></Array></mxGeometry></mxCell><mxCell id="39" value="Amazon&lt;br&gt;EFS" style="shape=datastore;whiteSpace=wrap;html=1;" vertex="1" parent="1"><mxGeometry x="767" y="-100" width="60" height="60" as="geometry"/></mxCell><mxCell id="45" value="Checkpoint storage&lt;br&gt;" style="text;html=1;align=center;verticalAlign=middle;resizable=0;points=[];autosize=1;strokeColor=none;fillColor=none;" vertex="1" parent="1"><mxGeometry x="800" y="-35" width="130" height="30" as="geometry"/></mxCell></root></mxGraphModel></diagram></mxfile>